#!OML:ASF E:\VariousWalksJay\Project 1\Capture day 1\Session 1\Actor2.ASF
:FULLY-SPECIFIED
:DEGREES
621
root 9.19752 13.8148 5.63942 14.8497 -46.5896 -5.82781
lowerback 45.5348 -3.41129 3.63133
upperback 18.5943 -4.26196 -2.07802
thorax -0.397135 -2.28667 -2.4701
lowerneck 4.43547 2.61222 1.76793
upperneck -21.7654 3.20965 -2.47791
head -7.31192 1.53775 -1.33639
rclavicle 5.40694e-014 -1.08536e-013
rhumerus -16.2677 32.1794 -71.8766
rradius 113.227
rwrist 9.99425
rhand -37.315 -5.8671
rfingers 7.12502
rthumb -10.3785 -35.591
lclavicle 5.40694e-014 -1.08536e-013
lhumerus 56.1935 -6.13745 33.1744
lradius 88.722
lwrist 61.3258
lhand -41.6727 17.353
lfingers 7.12502
lthumb -14.5798 46.8206
rfemur -63.1041 2.27393 34.9757
rtibia 86.2654
rfoot -32.8851 -17.5814
rtoes -3.4299
lfemur -92.3514 13.8264 -19.3723
ltibia 107.176
lfoot -16.74 2.13313
ltoes -20.9656
622
root 9.15673 13.7812 5.70041 14.708 -46.7158 -5.90026
lowerback 45.7746 -3.38953 3.5983
upperback 18.5636 -4.24912 -2.09108
thorax -0.48673 -2.28585 -2.46264
lowerneck 4.52563 2.61974 1.79991
upperneck -21.765 3.22523 -2.48468
head -7.3268 1.54397 -1.34671
rclavicle 2.06736e-014 1.70955e-014
rhumerus -15.4229 32.2725 -71.6614
rradius 113.301
rwrist 9.82778
rhand -36.9517 -6.19168
rfingers 7.12502
rthumb -10.028 -35.9328
lclavicle 2.06736e-014 1.70955e-014
lhumerus 56.3886 -5.74306 33.4017
lradius 88.2321
lwrist 61.4708
lhand -41.597 17.4596
lfingers 7.12502
lthumb -14.5069 46.9325
rfemur -62.8174 2.23722 35.032
rtibia 86.7663
rfoot -33.3089 -17.7092
rtoes -3.84678
lfemur -92.5994 13.2762 -19.279
ltibia 104.464
lfoot -16.9192 3.35818
ltoes -20.8559
623
root 9.11458 13.7539 5.76169 14.6014 -46.8176 -5.97922
lowerback 45.9487 -3.38092 3.58088
upperback 18.5322 -4.2455 -2.09959
thorax -0.562124 -2.28804 -2.45695
lowerneck 4.60557 2.63005 1.82623
upperneck -21.7398 3.24653 -2.48086
head -7.33192 1.55276 -1.35252
rclavicle 0 -5.92378e-014
rhumerus -14.6315 32.3869 -71.4866
rradius 113.323
rwrist 9.69195
rhand -36.5839 -6.51302
rfingers 7.12502
rthumb -9.67318 -36.2709
lclavicle 0 -5.92378e-014
lhumerus 56.554 -5.42495 33.6431
lradius 87.7535
lwrist 61.6627
lhand -41.5346 17.5567
lfingers 7.12502
lthumb -14.4468 47.0338
rfemur -62.5177 2.21109 35.0822
rtibia 87.1984
rfoot -33.72 -17.8329
rtoes -4.20206
lfemur -92.6709 12.7708 -19.1832
ltibia 101.56
lfoot -17.0984 4.50684
ltoes -20.7408
624
root 9.07099 13.7322 5.82332 14.5314 -46.8984 -6.06512
lowerback 46.0541 -3.3817 3.57966
upperback 18.5048 -4.247 -2.10463
thorax -0.617706 -2.29118 -2.45626
lowerneck 4.65997 2.64156 1.85268
upperneck -21.6865 3.27091 -2.46964
head -7.32336 1.56258 -1.35528
rclavicle -2.06736e-014 7.27552e-014
rhumerus -13.8972 32.5158 -71.3505
rradius 113.298
rwrist 9.57988
rhand -36.214 -6.82148
rfingers 7.12502
rthumb -9.31628 -36.5956
lclavicle -2.06736e-014 7.27552e-014
lhumerus 56.7016 -5.17993 33.8945
lradius 87.286
lwrist 61.8923
lhand -41.4713 17.639
lfingers 7.12502
lthumb -14.3857 47.1205
rfemur -62.2082 2.19904 35.1288
rtibia 87.5655
rfoot -34.1122 -17.9705
rtoes -4.55439
lfemur -92.5765 12.3159 -19.0895
ltibia 98.477
lfoot -17.2585 5.51927
ltoes -20.6056
625
root 9.02592 13.7155 5.88535 14.5001 -46.9563 -6.15476
lowerback 46.084 -3.39456 3.59161
upperback 18.4811 -4.25796 -2.10907
thorax -0.652635 -2.29727 -2.46061
lowerneck 4.69527 2.65731 1.87845
upperneck -21.6083 3.30269 -2.45104
head -7.30322 1.57563 -1.35536
rclavicle -3.65764e-014 -2.78299e-014
rhumerus -13.2276 32.6686 -71.2602
rradius 113.233
rwrist 9.48004
rhand -35.8535 -7.10764
rfingers 7.12502
rthumb -8.96843 -36.897
lclavicle -3.65764e-014 -2.78299e-014
lhumerus 56.8223 -4.99751 34.1464
lradius 86.8313
lwrist 62.1408
lhand -41.3988 17.7054
lfingers 7.12502
lthumb -14.3159 47.1919
rfemur -61.898 2.20986 35.1687
rtibia 87.8737
rfoot -34.4855 -18.1348
rtoes -4.91039
lfemur -92.3362 11.9093 -19.0062
ltibia 95.2257
lfoot -17.3842 6.37786
ltoes -20.5442
626
root 8.9792 13.7037 5.9476 14.5009 -46.9967 -6.24177
lowerback 46.0427 -3.41439 3.61183
upperback 18.4603 -4.27447 -2.11559
thorax -0.669002 -2.30454 -2.47167
lowerneck 4.71213 2.67546 1.90489
upperneck -21.5052 3.34005 -2.42188
head -7.27174 1.59066 -1.35182
rclavicle 4.92986e-014 -3.97569e-014
rhumerus -12.6346 32.8407 -71.2229
rradius 113.132
rwrist 9.38094
rhand -35.5141 -7.37123
rfingers 7.12502
rthumb -8.64092 -37.1744
lclavicle 4.92986e-014 -3.97569e-014
lhumerus 56.9229 -4.88471 34.3973
lradius 86.3844
lwrist 62.3736
lhand -41.3063 17.7616
lfingers 7.12502
lthumb -14.2268 47.2543
rfemur -61.5868 2.24751 35.1978
rtibia 88.1274
rfoot -34.8464 -18.3221
rtoes -5.27203
lfemur -91.9534 11.5505 -18.932
ltibia 91.8142
lfoot -17.4695 7.05247
ltoes -20.568
627
root 8.93072 13.6963 6.01051 14.5313 -47.021 -6.33076
lowerback 45.9366 -3.4421 3.64294
upperback 18.4425 -4.29676 -2.12547
thorax -0.668105 -2.31298 -2.49185
lowerneck 4.71519 2.69628 1.93015
upperneck -21.3818 3.38342 -2.38051
head -7.23138 1.60788 -1.34399
rclavicle 1.43125e-014 -1.58233e-013
rhumerus -12.1246 33.0333 -71.2404
rradius 113
rwrist 9.27346
rhand -35.2073 -7.6075
rfingers 7.12502
rthumb -8.34483 -37.4227
lclavicle 1.43125e-014 -1.58233e-013
lhumerus 57.001 -4.83118 34.6412
lradius 85.9458
lwrist 62.567
lhand -41.1843 17.8094
lfingers 7.12502
lthumb -14.1092 47.3104
rfemur -61.2685 2.31479 35.2187
rtibia 88.331
rfoot -35.1965 -18.5348
rtoes -5.64229
lfemur -91.4387 11.2459 -18.8738
ltibia 88.26
lfoot -17.5098 7.52389
ltoes -20.6175
628
root 8.88037 13.6929 6.07431 14.5796 -47.0343 -6.41666
lowerback 45.7765 -3.47421 3.67685
upperback 18.4278 -4.32414 -2.13986
thorax -0.652044 -2.32281 -2.51832
lowerneck 4.71034 2.72007 1.95235
upperneck -21.2459 3.43287 -2.32717
head -7.1858 1.62745 -1.33188
rclavicle -5.24792e-014 -5.56597e-015
rhumerus -11.6988 33.2472 -71.3152
rradius 112.841
rwrist 9.15292
rhand -34.9436 -7.81244
rfingers 7.12502
rthumb -8.09032 -37.6376
lclavicle -5.24792e-014 -5.56597e-015
lhumerus 57.0537 -4.8302 34.8744
lradius 85.5156
lwrist 62.6996
lhand -41.0355 17.8477
lfingers 7.12502
lthumb -13.9658 47.3586
rfemur -60.9362 2.41297 35.2282
rtibia 88.4886
rfoot -35.5349 -18.7715
rtoes -5.99979
lfemur -90.7879 10.9885 -18.8355
ltibia 84.5765
lfoot -17.5187 7.83212
ltoes -20.7706
629
root 8.82822 13.6935 6.13921 14.6387 -47.0383 -6.50185
lowerback 45.5704 -3.51259 3.72138
upperback 18.4182 -4.35623 -2.16208
thorax -0.620637 -2.33322 -2.5585
lowerneck 4.70041 2.74368 1.97061
upperneck -21.1048 3.48405 -2.26017
head -7.13803 1.64707 -1.31465
rclavicle 4.29375e-014 2.94201e-014
rhumerus -11.3602 33.4746 -71.4511
rradius 112.655
rwrist 9.02388
rhand -34.7311 -7.99659
rfingers 7.12502
rthumb -7.88525 -37.8295
lclavicle 4.29375e-014 2.94201e-014
lhumerus 57.0853 -4.88305 35.0996
lradius 85.0957
lwrist 62.7557
lhand -40.8601 17.8633
lfingers 7.12502
lthumb -13.7968 47.3858
rfemur -60.5788 2.54171 35.2278
rtibia 88.6014
rfoot -35.8682 -19.034
rtoes -6.34399
lfemur -90.004 10.7749 -18.8137
ltibia 80.7826
lfoot -17.5018 7.99896
ltoes -21.028
630
root 8.77423 13.6978 6.2054 14.7009 -47.0381 -6.58277
lowerback 45.3294 -3.55367 3.76841
upperback 18.4115 -4.39184 -2.19114
thorax -0.578536 -2.34435 -2.60736
lowerneck 4.68726 2.76751 1.98113
upperneck -20.9626 3.53612 -2.18356
head -7.08979 1.66696 -1.29303
rclavicle 9.54166e-015 3.97569e-015
rhumerus -11.1126 33.7172 -71.6473
rradius 112.449
rwrist 8.89581
rhand -34.5729 -8.15761
rfingers 7.12502
rthumb -7.7326 -37.9962
lclavicle 9.54166e-015 3.97569e-015
lhumerus 57.0894 -4.98878 35.319
lradius 84.6913
lwrist 62.7313
lhand -40.6635 17.8606
lfingers 7.12502
lthumb -13.6073 47.3959
rfemur -60.1925 2.69719 35.2171
rtibia 88.673
rfoot -36.1924 -19.3191
rtoes -6.68047
lfemur -89.0975 10.6046 -18.8151
ltibia 76.9006
lfoot -17.4756 8.0697
ltoes -21.3155
631
root 8.7184 13.7054 6.27331 14.7567 -47.0359 -6.65482
lowerback 45.0629 -3.59541 3.81408
upperback 18.4069 -4.42976 -2.22349
thorax -0.527859 -2.35621 -2.65935
lowerneck 4.66982 2.78927 1.9795
upperneck -20.8209 3.58366 -2.10507
head -7.04145 1.68547 -1.26839
rclavicle 3.65764e-014 -2.3059e-014
rhumerus -10.9555 33.9724 -71.8945
rradius 112.226
rwrist 8.77717
rhand -34.4611 -8.30039
rfingers 7.12502
rthumb -7.62468 -38.1429
lclavicle 3.65764e-014 -2.3059e-014
lhumerus 57.0583 -5.13119 35.5292
lradius 84.3177
lwrist 62.6491
lhand -40.4568 17.8385
lfingers 7.12502
lthumb -13.4081 47.387
rfemur -59.7722 2.87218 35.1933
rtibia 88.707
rfoot -36.5095 -19.6192
rtoes -7.01245
lfemur -88.0753 10.4735 -18.847
ltibia 72.9594
lfoot -17.4525 8.08695
ltoes -21.6131
632
root 8.66087 13.7162 6.34312 14.806 -47.033 -6.71727
lowerback 44.7732 -3.63947 3.85511
upperback 18.4026 -4.47315 -2.26146
thorax -0.471357 -2.37042 -2.71399
lowerneck 4.65148 2.81151 1.96936
upperneck -20.6825 3.62984 -2.02973
head -6.99426 1.70427 -1.24332
rclavicle -3.18055e-014 -1.47101e-014
rhumerus -10.8895 34.2437 -72.1961
rradius 111.991
rwrist 8.68039
rhand -34.3883 -8.42755
rfingers 7.12502
rthumb -7.55437 -38.2726
lclavicle -3.18055e-014 -1.47101e-014
lhumerus 56.9828 -5.31297 35.7321
lradius 83.9784
lwrist 62.5105
lhand -40.2461 17.7958
lfingers 7.12502
lthumb -13.205 47.3576
rfemur -59.32 3.0602 35.157
rtibia 88.7059
rfoot -36.8187 -19.9273
rtoes -7.3391
lfemur -86.957 10.3776 -18.9102
ltibia 68.9905
lfoot -17.4255 8.09073
ltoes -21.9241
633
root 8.60173 13.7299 6.41507 14.8432 -47.0311 -6.76366
lowerback 44.4629 -3.68622 3.89101
upperback 18.398 -4.52262 -2.30704
thorax -0.41043 -2.38714 -2.77286
lowerneck 4.62866 2.83384 1.95046
upperneck -20.5451 3.67406 -1.95735
head -6.94685 1.72307 -1.21756
rclavicle 2.54444e-014 2.94201e-014
rhumerus -10.9174 34.5263 -72.5519
rradius 111.747
rwrist 8.61819
rhand -34.3508 -8.53371
rfingers 7.12502
rthumb -7.51814 -38.3801
lclavicle 2.54444e-014 2.94201e-014
lhumerus 56.8613 -5.53681 35.9264
lradius 83.6821
lwrist 62.3341
lhand -40.0372 17.7455
lfingers 7.12502
lthumb -13.0037 47.3202
rfemur -58.8377 3.25535 35.1033
rtibia 88.6729
rfoot -37.1182 -20.2355
rtoes -7.67358
lfemur -85.7606 10.3124 -19.0075
ltibia 65.0301
lfoot -17.3962 8.11106
ltoes -22.1974
634
root 8.54106 13.7467 6.48926 14.8705 -47.0328 -6.79871
lowerback 44.1387 -3.73433 3.91868
upperback 18.3896 -4.57723 -2.35719
thorax -0.350058 -2.40648 -2.83116
lowerneck 4.59909 2.85767 1.91766
upperneck -20.4024 3.71778 -1.88787
head -6.89683 1.74304 -1.19021
rclavicle 4.13472e-014 -5.08889e-014
rhumerus -11.04 34.8234 -72.9548
rradius 111.502
rwrist 8.58996
rhand -34.3331 -8.61797
rfingers 7.12502
rthumb -7.50109 -38.465
lclavicle 4.13472e-014 -5.08889e-014
lhumerus 56.6845 -5.79769 36.112
lradius 83.4346
lwrist 62.1427
lhand -39.8376 17.6883
lfingers 7.12502
lthumb -12.8112 47.2752
rfemur -58.3234 3.45082 35.0361
rtibia 88.6083
rfoot -37.4065 -20.5324
rtoes -8.01897
lfemur -84.5008 10.2763 -19.1267
ltibia 61.1154
lfoot -17.3576 8.14294
ltoes -22.3577
